<?xml version="1.0" standalone="no"?>
<!DOCTYPE svg PUBLIC "-//W3C//DTD SVG 20010904//EN"
 "http://www.w3.org/TR/2001/REC-SVG-20010904/DTD/svg10.dtd">
<svg version="1.0" xmlns="http://www.w3.org/2000/svg"
 width="265.000000pt" height="301.000000pt" viewBox="0 0 265.000000 301.000000"
 preserveAspectRatio="xMidYMid meet">

<g transform="translate(0.000000,301.000000) scale(0.100000,-0.100000)"
fill="#000000" stroke="none">
<path d="M1145 2759 c-369 -46 -711 -298 -870 -641 -253 -548 -15 -1210 529
-1473 622 -301 1367 33 1560 699 190 654 -260 1332 -939 1415 -102 12 -179 12
-280 0z m834 -574 c95 -23 177 -70 257 -150 221 -218 221 -560 0 -781 -80 -80
-181 -135 -280 -153 -34 -6 -190 -11 -363 -11 l-303 0 -550 275 c-303 151
-550 277 -550 280 0 3 246 128 548 279 l547 275 315 0 c247 1 329 -3 379 -14z"/>
<path d="M912 1832 l-372 -187 375 -188 375 -187 0 375 c0 206 -1 375 -2 374
-2 0 -171 -84 -376 -187z m248 -188 c0 -124 -1 -135 -17 -130 -53 17 -295 124
-296 131 -2 8 286 134 306 135 4 0 7 -61 7 -136z"/>
<path d="M1470 1646 l0 -376 203 0 c279 0 352 21 451 131 62 69 89 143 89 244
0 113 -28 181 -107 261 -99 99 -132 108 -408 112 l-228 3 0 -375z m454 232
c55 -16 138 -99 154 -154 27 -91 1 -195 -64 -256 -60 -56 -105 -68 -266 -68
l-148 0 0 245 0 245 141 0 c82 0 159 -5 183 -12z"/>
</g>
</svg>
